<svg width="48" height="48" viewBox="0 0 48 48" fill="none" xmlns="http://www.w3.org/2000/svg">
<path d="M24 47.85C18.4105 47.85 15.6452 47.8487 13.3801 47.2418C7.22019 45.5912 2.40876 40.7798 0.758224 34.6199C0.151288 32.3548 0.15 29.5895 0.15 24C0.15 18.4105 0.151288 15.6452 0.758224 13.3801C2.40876 7.22019 7.22019 2.40876 13.3801 0.758224C15.6452 0.151288 18.4105 0.15 24 0.15C29.5895 0.15 32.3548 0.151288 34.6199 0.758224C40.7798 2.40876 45.5912 7.22019 47.2418 13.3801C47.8487 15.6452 47.85 18.4105 47.85 24C47.85 29.5895 47.8487 32.3548 47.2418 34.6199C45.5912 40.7798 40.7798 45.5912 34.6199 47.2418C32.3548 47.8487 29.5895 47.85 24 47.85Z" fill="#4F4F4F"/>
<path d="M24 47.85C18.4105 47.85 15.6452 47.8487 13.3801 47.2418C7.22019 45.5912 2.40876 40.7798 0.758224 34.6199C0.151288 32.3548 0.15 29.5895 0.15 24C0.15 18.4105 0.151288 15.6452 0.758224 13.3801C2.40876 7.22019 7.22019 2.40876 13.3801 0.758224C15.6452 0.151288 18.4105 0.15 24 0.15C29.5895 0.15 32.3548 0.151288 34.6199 0.758224C40.7798 2.40876 45.5912 7.22019 47.2418 13.3801C47.8487 15.6452 47.85 18.4105 47.85 24C47.85 29.5895 47.8487 32.3548 47.2418 34.6199C45.5912 40.7798 40.7798 45.5912 34.6199 47.2418C32.3548 47.8487 29.5895 47.85 24 47.85Z" fill="#4F4F4F"/>
<path d="M24 47.85C18.4105 47.85 15.6452 47.8487 13.3801 47.2418C7.22019 45.5912 2.40876 40.7798 0.758224 34.6199C0.151288 32.3548 0.15 29.5895 0.15 24C0.15 18.4105 0.151288 15.6452 0.758224 13.3801C2.40876 7.22019 7.22019 2.40876 13.3801 0.758224C15.6452 0.151288 18.4105 0.15 24 0.15C29.5895 0.15 32.3548 0.151288 34.6199 0.758224C40.7798 2.40876 45.5912 7.22019 47.2418 13.3801C47.8487 15.6452 47.85 18.4105 47.85 24C47.85 29.5895 47.8487 32.3548 47.2418 34.6199C45.5912 40.7798 40.7798 45.5912 34.6199 47.2418C32.3548 47.8487 29.5895 47.85 24 47.85Z" stroke="#4F4F4F" stroke-width="0.3"/>
<g filter="url(#filter0_dd_7_6183)">
<circle cx="24" cy="24" r="10.5" stroke="#FEC887" stroke-width="3"/>
</g>
<defs>
<filter id="filter0_dd_7_6183" x="7.5" y="9" width="33" height="33" filterUnits="userSpaceOnUse" color-interpolation-filters="sRGB">
<feFlood flood-opacity="0" result="BackgroundImageFix"/>
<feColorMatrix in="SourceAlpha" type="matrix" values="0 0 0 0 0 0 0 0 0 0 0 0 0 0 0 0 0 0 127 0" result="hardAlpha"/>
<feOffset dy="1.5"/>
<feGaussianBlur stdDeviation="1.5"/>
<feColorMatrix type="matrix" values="0 0 0 0 0.0627451 0 0 0 0 0.0941176 0 0 0 0 0.156863 0 0 0 0.06 0"/>
<feBlend mode="normal" in2="BackgroundImageFix" result="effect1_dropShadow_7_6183"/>
<feColorMatrix in="SourceAlpha" type="matrix" values="0 0 0 0 0 0 0 0 0 0 0 0 0 0 0 0 0 0 127 0" result="hardAlpha"/>
<feOffset dy="1.5"/>
<feGaussianBlur stdDeviation="2.25"/>
<feColorMatrix type="matrix" values="0 0 0 0 0.0627451 0 0 0 0 0.0941176 0 0 0 0 0.156863 0 0 0 0.1 0"/>
<feBlend mode="normal" in2="effect1_dropShadow_7_6183" result="effect2_dropShadow_7_6183"/>
<feBlend mode="normal" in="SourceGraphic" in2="effect2_dropShadow_7_6183" result="shape"/>
</filter>
</defs>
</svg>
